<?xml version="1.0" encoding="UTF-8"?>
<svg id="Layer_1" data-name="Layer 1" xmlns="http://www.w3.org/2000/svg" viewBox="0 0 500 500">
  <defs>
    <style>
      .cls-1 {
        fill: none;
        stroke: #dcdcdc;
        stroke-miterlimit: 10;
        stroke-width: 5.67px;
      }
    </style>
  </defs>
  <path class="cls-1" d="M413.84,167.53v165.67c-1.81,3.53-1.5,7.54-2.52,11.27-9.48,34.4-31.25,56.57-65.57,66.46-4.54,1.31-9.32,1.29-13.79,2.86H166.93c-.31-1.01-1.23-.67-1.88-.77-8.26-1.16-16.37-3.05-23.89-6.61-35.25-16.71-54.16-44.63-54.67-83.67-.63-48.49-.17-97-.14-145.5,0-15.62,3.38-30.53,11.26-44.03,17.89-30.64,44.81-46.58,80.31-46.84,48.07-.35,96.15-.09,144.22-.08,7.59,0,15.14,.6,22.47,2.61,34.36,9.38,56.48,31.19,66.36,65.45,1.25,4.35,1.13,8.95,2.87,13.17Zm-29.03,82.84c0-23.77,.02-47.54,0-71.31,0-7.49-.75-14.88-3.29-21.99-9.32-26.05-31.72-41.7-59.95-41.73-47.65-.04-95.29-.02-142.94,0-7.27,0-14.46,.78-21.37,3.22-26.05,9.22-41.83,31.69-41.87,59.85-.06,47.75-.03,95.51,0,143.26,0,7.27,.82,14.45,3.28,21.35,9.24,25.83,31.43,41.62,59.31,41.7,48.07,.14,96.14,.1,144.22,0,21.33-.04,38.56-8.61,51.2-25.88,8.14-11.12,11.45-23.82,11.42-37.5-.04-23.66-.01-47.33-.01-70.99Z"/>
  <path class="cls-1" d="M250.04,334.45c-46.38-.06-84.42-38.15-84.35-84.45,.06-46.38,38.15-84.42,84.45-84.36,46.37,.06,84.42,38.16,84.36,84.45-.06,46.37-38.16,84.42-84.45,84.36Zm.02-139.69c-30.48,.05-55.18,24.74-55.26,55.24-.08,30.39,24.58,55.14,55.16,55.34,30.4,.21,55.59-24.98,55.42-55.4-.17-30.55-24.91-55.23-55.32-55.18Z"/>
  <path class="cls-1" d="M338.49,141.13c11.71,.36,21.12,10.04,20.85,21.43-.29,11.92-10.12,21.32-21.95,20.99-11.54-.32-21.1-10.31-20.69-21.61,.44-11.87,10.17-21.17,21.78-20.81Z"/>
</svg>