<?xml version="1.0" encoding="UTF-8"?>
<svg id="Layer_1" data-name="Layer 1" xmlns="http://www.w3.org/2000/svg" viewBox="0 0 500 500">
  <defs>
    <style>
      .cls-1 {
        fill: none;
        stroke: #dcdcdc;
        stroke-miterlimit: 10;
        stroke-width: 5.67px;
      }
    </style>
  </defs>
  <path class="cls-1" d="M48.76,371.02V130.49c3.03-4.6,4.08-10.11,7.21-14.77,5.86-8.72,15-12.2,23.86-16.27,112.91,0,225.82,0,338.74,0,.25,.41,.48,1.15,.76,1.17,16.91,1.47,31.92,17.39,31.9,38.6-.08,73.95,.05,147.89-.08,221.84-.04,23.31-16.21,39.24-39.55,39.43-12.94,.11-25.89,.02-38.83,.02-93.98,0-187.95,0-281.93,0-20.48,0-32.46-7.95-40.13-26.56-.45-1.1-.25-2.66-1.96-2.93ZM392.62,193.13c-2.65,1.83-3.9,2.67-5.13,3.54-44.06,31.09-88.18,62.12-132.1,93.4-4.06,2.89-6.56,2.89-10.54,.05-33.81-24.14-67.79-48.06-101.73-72.03-11.46-8.09-22.96-16.13-34.92-24.53-.25,1.77-.44,2.48-.44,3.2-.01,60.5,.1,121.01-.19,181.51-.03,6.35,3.1,5.6,7.06,5.6,90.36-.03,180.71-.09,271.07,.13,6.03,.02,7.09-1.71,7.06-7.29-.21-57.14-.13-114.29-.13-171.43v-12.15ZM109.07,116.83c1.76,1.29,2.46,1.83,3.18,2.33,44.04,30.63,88.16,61.15,132.02,92.03,4.84,3.41,7.8,2.56,11.98-.35,39.11-27.33,78.33-54.51,117.5-81.76,5.5-3.83,10.94-7.75,17.28-12.25H109.07Zm-43.36,19.3c.73,7.89,6.9,11.98,12.77,16.12,54.99,38.85,110.06,77.58,164.96,116.56,4.78,3.39,7.7,4.17,13.03,.37,55.03-39.23,110.35-78.07,165.56-117.04,3.58-2.53,7.11-5.15,9.69-8.83,4.36-6.24,2.89-14.31-3.4-20.89-5.42-5.66-9.85-4.61-15.96-.32-51.06,35.89-102.49,71.27-153.52,107.22-6.82,4.8-11.03,4.57-17.79-.21-51.63-36.43-103.62-72.35-155.51-108.42-2.47-1.72-4.71-4.11-8.27-2.14-6.83,3.78-10.74,9.4-11.57,17.57Zm.16,27.52c0,67.94-.07,134.34,.07,200.74,.02,10.8,9.15,18.95,20.2,19.48,3.74,.18,4.84-.8,4.83-4.62-.11-64.61-.08-129.23-.07-193.84,0-2.34-.03-4.36-2.46-5.98-7.24-4.81-14.26-9.93-22.57-15.78Zm368.33,.09c-7.98,5.63-14.62,10.51-21.49,15.05-2.73,1.8-3.5,3.85-3.5,6.99,.08,64.38,.11,128.77-.04,193.15,0,4.26,1.3,5.16,5.25,4.92,12.34-.75,20.02-9.44,20.03-23.68,.07-63.61,.03-127.21,.02-190.82,0-1.45-.14-2.9-.28-5.6Z"/>
</svg>