<?xml version="1.0" encoding="UTF-8"?>
<svg id="Layer_1" data-name="Layer 1" xmlns="http://www.w3.org/2000/svg" viewBox="0 0 500 500">
  <defs>
    <style>
      .cls-1 {
        fill: none;
        stroke: #dcdcdc;
        stroke-miterlimit: 10;
        stroke-width: 5.67px;
      }
    </style>
  </defs>
  <path class="cls-1" d="M87.51,331.62V111.99c3.33-11.32,10.93-16.55,22.68-17.16,15.75-.81,31.46-2.46,47.2-3.6,43.78-3.17,87.57-6.16,131.33-9.52,4.62-.36,9.67,.49,13.95-2.37h10.39c8.51,2.51,16.98,4.85,24.42,10.24,20.11,14.56,40.52,28.73,60.77,43.1,5.36,3.8,10.91,7.46,14.23,13.44v241.88c-2.76,12.89-11.5,17.78-23.88,18.21-8.88,.31-17.74,1.07-26.6,1.61-55.42,3.36-110.85,6.6-166.26,10.18-8.38,.54-16.97-.18-25.13,2.65h-11.87c-4.05-3.83-10.2-4.35-13.7-9.19-19.2-26.6-42.67-50.12-57.53-79.84Zm302.68-62.78c0-12.6,0-25.21,0-37.81,0-20.02,.04-40.04-.02-60.05-.03-10.99-2.85-13.67-13.54-13.11-22.69,1.18-45.39,2.28-68.07,3.61-46.84,2.74-93.68,5.66-140.52,8.38-10.19,.59-13.53,3.72-13.53,14.21-.04,64.75-.04,129.5,0,194.25,0,11.65,4.08,15.86,15.53,15.54,12.34-.35,24.67-1.11,37-1.84,55.72-3.28,111.43-6.65,167.15-9.91,12.44-.73,15.99-4.24,16.01-16.89,.03-32.13,0-64.26,.01-96.38Zm-224.13-121.33c4.92-.42,9.83-.95,14.76-1.25,60.15-3.56,120.31-7.09,180.46-10.66,1.62-.1,3.87,.71,4.64-1.28,.93-2.43-1.49-3.34-2.99-4.43-11.56-8.42-23.02-16.99-34.8-25.09-6.67-4.59-14.52-6.18-22.56-5.61-45.81,3.27-91.6,6.68-137.4,10.05-14.77,1.09-29.55,2.11-44.31,3.37-2.57,.22-5.93,.24-7.03,3.22-1.24,3.35,2.13,4.67,4.05,6.24,7.64,6.25,15.51,12.22,23.2,18.41,6.45,5.19,13.64,7.81,21.97,7.02Z"/>
  <path class="cls-1" d="M232.52,248.23c0,30.86,.02,61.72-.03,92.58,0,2.59,.63,3.97,3.56,4.38,3.87,.54,7.65,1.76,11.47,2.68,5.5,1.32,6.18,3.5,2.5,7.86-3.35,3.97-8.01,4.66-12.71,4.95-13.56,.83-27.13,1.55-40.7,2.16-1.92,.09-4.83,1.69-5.57-1.6-.62-2.75,.3-5.48,2.7-7.23,1.14-.84,2.65-1.51,4.04-1.61,8.42-.59,10.15-5.1,10.05-13.1-.47-37.56-.31-75.14-.1-112.71,.03-5.42-.85-8.08-7.05-7.89-3.22,.1-8.97,2.8-9.5-3.46-.51-6.07,2.97-10.77,9.25-11.37,15.97-1.54,32.01-2.42,48-3.74,3.84-.32,4.32,2.8,5.67,4.86,20.01,30.48,39.94,61.01,59.89,91.53,1.05,1.61,2.17,3.19,3.36,4.94,2.09-2.18,1.07-4.48,1.08-6.5,.09-25.21-.15-50.43,.21-75.63,.08-5.8-1.07-8.84-7.29-8.48-.96,.06-2.08-.08-2.89-.54-2.3-1.32-6.6,2.03-7.22-2.59-.58-4.29,1.85-7.51,5.56-9.63,2.19-1.25,4.6-1.48,7.12-1.59,12.34-.57,24.67-1.38,37.01-1.9,2.14-.09,5.32-2.31,6.4,1.21,1.06,3.47,0,6.86-2.98,9.3-.55,.45-1.31,.7-2.01,.89-3.55,.95-9.31,.89-10.21,2.96-1.73,3.98-.81,9.16-.82,13.84-.03,41.53-.16,83.05,.16,124.57,.04,5.26-1.86,7.58-6.18,9.15-4.63,1.69-9.21,3.38-14.19,3.93-7.95,.87-14.6-1.13-19.6-7.7-12.27-16.1-22.11-33.79-33.14-50.69-11.67-17.9-23-36.02-34.48-54.04-.45,.08-.9,.15-1.35,.23Z"/>
</svg>